HIERARCHY
ROOT pelvis
{
  OFFSET 0 100 0
  CHANNELS 6 Xposition Yposition Zposition Zrotation Xrotation Yrotation
  JOINT pelvis_right_femur
  {
    OFFSET -10.78128 -3.44521 -0.5502486
    CHANNELS 3 Zrotation Xrotation Yrotation
    JOINT right_femur_tibia
    {
      OFFSET -0.8047443 -44.0398 -0.1307829
      CHANNELS 3 Zrotation Xrotation Yrotation
      JOINT right_tibia_foot
      {
        OFFSET 3.006224 -47.83518 -5
        CHANNELS 3 Zrotation Xrotation Yrotation
        End Site
        {
          OFFSET 0 -5 15
        }
      }
    }
  }
  JOINT pelvis_left_femur
  {
    OFFSET 10.78128 -3.44521 -0.5502486
    CHANNELS 3 Zrotation Xrotation Yrotation
    JOINT left_femur_tibia
    {
      OFFSET 0.8047443 -44.0398 -0.1307829
      CHANNELS 3 Zrotation Xrotation Yrotation
      JOINT left_tibia_foot
      {
        OFFSET -4.370144 -48.10324 -4.275266
        CHANNELS 3 Zrotation Xrotation Yrotation
        End Site
        {
          OFFSET 0 -5 15
        }
      }
    }
  }
  JOINT pelvis_spine1
  {
    OFFSET 0 6.468898 -3.129235
    CHANNELS 3 Zrotation Xrotation Yrotation
    JOINT spine1
    {
      OFFSET 0 23.15396 4.99043
      CHANNELS 3 Zrotation Xrotation Yrotation
      JOINT spine2
      {
        OFFSET 0 20.79997 -5.064912
        CHANNELS 3 Zrotation Xrotation Yrotation
        JOINT neck
        {
          OFFSET 0 14.38658 9.616178
          CHANNELS 3 Zrotation Xrotation Yrotation
          End Site
          {
            OFFSET 0 20 0
          }
        }
      }
      JOINT right_manubrium
      {
        OFFSET -5.722621 16.35077 3.967754
        CHANNELS 3 Zrotation Xrotation Yrotation
        JOINT right_clavicle
        {
          OFFSET -13.16364 1.694482 -4.693211
          CHANNELS 3 Zrotation Xrotation Yrotation
          JOINT right_humerus
          {
            OFFSET -28.5034 -0.3100689 -2.792744
            CHANNELS 3 Zrotation Xrotation Yrotation
            JOINT right_radius
            {
              OFFSET -25.15693 0.02248979 -1.271978
              CHANNELS 3 Zrotation Xrotation Yrotation
              End Site
              {
                OFFSET -15 0 0
              }
            }
          }
        }
      }
      JOINT left_manubrium
      {
        OFFSET 5.722621 16.35077 3.967754
        CHANNELS 3 Zrotation Xrotation Yrotation
        JOINT left_clavicle
        {
          OFFSET 13.16364 1.694482 -4.693211
          CHANNELS 3 Zrotation Xrotation Yrotation
          JOINT left_humerus
          {
            OFFSET 29.39168 -1.063119 -2.237045
            CHANNELS 3 Zrotation Xrotation Yrotation
            JOINT left_radius
            {
              OFFSET 24.59957 -0.9528479 0.9047498
              CHANNELS 3 Zrotation Xrotation Yrotation
              End Site
              {
                OFFSET 15 -0 -0
              }
            }
          }
        }
      }
    }
  }
}
MOTION
Frames: 13
Frame Time: 0.0416666666667
1130.009 100.2558 2752.214 3.319441 -2.525618 41.71046 1.506107 -27.87857 0.4814204 -0 12.58476 -0 -5.660233 -4.473201 -8.994558 -4.396365 20.29222 -10.49751 -0 21.42258 -0 -5.3934 -19.90011 11.07474 -2.939908 0.9289005 0.941319 2.919505 6.333363 -8.021096 2.63523 23.42651 4.4424 1.481218 -19.21615 7.297913 1.653648 -12.45243 9.678894 90.37684 26.10165 -22.57519 -0 0 6.493997 -15.48945 9.706993 7.806883 4.229468 -19.40619 -5.268681 -81.03378 29.00441 3.824827 0 0 -24.39942 -2.830749 10.18476 15.19627
1133.833 99.98371 2757.498 2.660181 -2.754725 42.0127 3.3038 -26.40248 1.802111 -0 14.26756 -0 -5.74335 -3.765377 -9.140991 -3.524961 19.38476 -9.96926 -0 28.36379 -0 -6.315301 -16.66317 10.57729 -2.117806 0.5136568 0.8942854 3.004914 6.689861 -8.046162 2.62159 23.21811 4.185931 1.553293 -19.24754 6.847835 2.484998 -11.99568 10.06758 89.90984 26.49423 -22.4347 -0 0 5.649436 -15.17183 10.44326 7.525961 4.038548 -19.42821 -5.068007 -81.68426 27.89806 4.663583 0 0 -23.27261 -1.846136 10.82785 14.45081
1137.762 100.3199 2762.971 2.429145 -3.545942 42.05481 5.040476 -23.03953 3.339071 -0 16.72231 -0 -5.945795 -3.965697 -9.089776 -2.682383 17.28949 -9.526171 -0 36.89389 -0 -7.419538 -12.77189 10.87067 -1.146937 0.3068449 1.16402 2.934217 7.276187 -7.937536 2.581445 23.1316 4.060363 1.629725 -19.16769 6.546003 3.008106 -11.93736 10.41409 89.56747 26.67674 -21.93511 -0 0 5.35811 -14.87065 10.95635 7.192732 3.799283 -19.40336 -4.82498 -82.63983 26.9393 5.956509 0 0 -21.85294 -0.8700746 10.99121 13.80565
1141.672 101.2448 2768.4 2.732776 -4.535972 41.70377 6.127986 -18.10941 4.492811 -0 18.44391 -0 -6.153606 -5.186974 -8.808539 -2.212365 13.55008 -9.112088 -0 46.19845 -0 -8.262236 -9.113587 11.86668 -0.5099812 0.4294451 1.849227 2.816521 7.91279 -7.576566 2.583468 23.28314 3.961532 1.714375 -18.86969 6.334887 3.386098 -12.20697 10.75822 88.96967 26.80218 -20.89773 -0 0 5.549181 -14.77522 11.18547 7.106722 3.46829 -19.24489 -4.565821 -83.87293 26.35087 7.591677 0 0 -20.21648 -0.3356666 10.89432 13.57079
1145.443 102.573 2773.575 3.4792 -5.296777 40.97887 6.331602 -12.33115 5.05486 -0 18.63245 -0 -6.097395 -6.859808 -8.282589 -2.200719 8.059941 -8.52465 -0 54.38077 -0 -8.510844 -6.574146 13.23131 -0.4981187 0.8085105 2.955916 2.655753 8.527119 -6.951787 2.615876 23.58499 3.86123 1.829158 -18.36418 6.140482 3.739628 -12.78744 11.12844 87.89457 26.97423 -19.29561 -0 0 6.30376 -15.13698 11.24353 7.50951 3.15253 -19.01477 -4.276543 -85.27433 25.94391 9.482188 0 0 -18.70041 -0.2724979 10.61572 13.67023
1149.038 103.9782 2778.421 4.417021 -5.653488 40.03681 5.882733 -6.476035 5.249219 -0 17.51167 -0 -5.562145 -8.358072 -7.541698 -2.322568 1.352151 -7.624833 -0 59.14804 -0 -8.198658 -5.553143 14.70831 -0.9688675 1.239037 4.310613 2.356847 9.110308 -6.16405 2.620209 23.82715 3.808306 1.96992 -17.75784 5.954417 3.985854 -13.72246 11.47864 86.4403 27.07145 -17.23928 -0 0 7.849315 -16.03937 11.27037 8.369098 3.053492 -18.80646 -3.926041 -86.72064 25.42047 11.55196 0 0 -17.59861 -0.4025078 10.1052 13.80066
1152.514 105.1172 2782.989 5.194372 -5.688423 39.05151 5.249115 -1.072326 5.361438 -0 15.77574 -0 -4.634899 -9.550651 -6.645617 -2.105604 -5.741807 -6.43895 -0 59.09694 -0 -7.636403 -5.746405 16.1801 -1.485139 1.573799 5.622198 1.865684 9.609868 -5.343635 2.543058 23.84524 3.864876 2.106978 -17.22487 5.810441 3.960628 -15.02827 11.743 84.85009 26.92082 -14.86438 -0 0 10.3031 -17.33467 11.29803 9.498299 3.271292 -18.59109 -3.529423 -88.18652 24.71867 13.82504 0 0 -16.84313 -0.5283131 9.35377 13.86309
1155.976 105.7425 2787.386 5.542648 -5.552886 38.13301 4.773196 3.695832 5.443067 -0 13.96741 -0 -3.643151 -10.77491 -5.649731 -1.330045 -12.46702 -5.126084 -0 54.3718 -0 -7.121198 -6.478278 17.55173 -1.700288 1.79168 6.645225 1.237885 9.900307 -4.575187 2.375557 23.63988 4.042707 2.197358 -16.90322 5.74542 3.570931 -16.59341 11.86251 83.3404 26.4952 -12.29904 -0 0 13.42545 -18.74684 11.2415 10.71039 3.737023 -18.25487 -3.127196 -89.66009 24.0199 16.27777 0 0 -16.13365 -0.6314522 8.476888 13.97886
1159.522 105.7502 2791.721 5.416467 -5.36152 37.32027 4.527913 7.877076 5.368108 -0 12.41065 -0 -2.874053 -12.3483 -4.596816 -0.1527527 -18.23181 -3.918609 -0 46.33114 -0 -6.768742 -7.165135 18.73466 -1.554798 1.905603 7.274345 0.5909475 9.880857 -3.898825 2.160669 23.34111 4.293062 2.207959 -16.81688 5.781962 2.836803 -18.20287 11.78922 82.06708 25.87876 -9.7142 -0 0 16.70426 -20.05214 10.99693 11.8723 4.290425 -17.72352 -2.753864 -91.07095 23.54324 18.73765 0 0 -15.18135 -0.7497931 7.669731 14.24149
1163.223 105.1843 2796.087 4.954318 -5.169463 36.59891 4.393435 11.55962 5.046368 -0 11.42435 -0 -2.390365 -14.17292 -3.538473 1.03286 -22.62104 -3.058287 -0 36.8565 -0 -6.544765 -7.512514 19.65231 -1.200416 1.884083 7.551932 0.03402863 9.578312 -3.344223 1.963088 23.0742 4.543395 2.139596 -16.91099 5.913489 1.886564 -19.64974 11.52316 81.12276 25.17128 -7.345392 -0 0 19.64701 -21.18183 10.53721 12.91859 4.760961 -17.022 -2.441977 -92.31831 23.35862 20.99709 0 0 -13.85295 -0.9129935 7.090303 14.63088
1167.141 104.216 2800.568 4.36277 -4.958805 35.92795 4.163926 14.73645 4.555392 -0 11.45461 -0 -2.053346 -15.7392 -2.539865 1.802781 -25.44551 -2.724629 -0 27.86078 -0 -6.349917 -7.492826 20.21727 -0.8638997 1.660801 7.628884 -0.3739901 9.140232 -2.941095 1.834145 22.87258 4.740562 2.037234 -17.11289 6.099761 0.9524819 -20.78722 11.13433 80.50124 24.49139 -5.43617 -0 0 21.95462 -22.17385 9.951099 13.8349 5.01609 -16.25838 -2.214298 -93.2971 23.36471 22.9112 0 0 -12.23999 -1.137366 6.772757 15.08625
1171.334 103.1035 2805.232 3.849153 -4.663002 35.28146 3.624664 17.28493 4.119573 -0 13.02017 -0 -1.675172 -16.36259 -1.672381 1.859142 -26.7455 -2.975355 -0 21.00663 -0 -6.062596 -7.265319 20.37792 -0.7638083 1.192371 7.68674 -0.6386127 8.751678 -2.70389 1.796687 22.69477 4.875941 1.981579 -17.35893 6.287824 0.311845 -21.50803 10.73361 80.11547 23.99758 -4.166918 -0 0 23.49005 -23.06613 9.415223 14.607 5.004061 -15.57382 -2.067656 -93.92435 23.4069 24.38706 0 0 -10.60204 -1.39648 6.632158 15.54672
1175.846 102.1311 2810.121 3.610317 -4.258024 34.68915 2.65586 19.03579 3.969073 -0 16.51016 -0 -1.181191 -15.40023 -1.028532 1.108439 -26.69647 -3.731414 -0 17.37962 -0 -5.576183 -7.098815 20.22217 -1.047323 0.513303 7.845385 -0.8198531 8.574286 -2.618719 1.84223 22.4888 4.985911 2.054621 -17.6229 6.446206 0.1376467 -21.75888 10.42248 79.94394 23.81098 -3.647844 -0 0 24.20078 -23.85061 9.104682 15.17764 4.782631 -15.09326 -1.991874 -94.19756 23.38123 25.38237 0 0 -9.179664 -1.588062 6.525286 15.91227
